{"title":"Iraivi 2016 TAMiL DVDSCR TC Rip 1CD MP4 - Team TMR","uid":14786251,"size":734812667,"categoryP":"video","categoryS":"movies","magnet":"?xt=urn:btih:ab0c17dbdf73ea1a321ac9c327df396fe975c92b&amp;dn=Iraivi+2016+TAMiL+DVDSCR+TC+Rip+1CD+MP4+-+Team+TMR&amp;tr=udp%3A%2F%2Ftracker.leechers-paradise.org%3A6969&amp;tr=udp%3A%2F%2Fzer0day.ch%3A1337&amp;tr=udp%3A%2F%2Fopen.demonii.com%3A1337&amp;tr=udp%3A%2F%2Ftracker.coppersurfer.tk%3A6969&amp;tr=udp%3A%2F%2Fexodus.desync.com%3A6969","seeders":7,"leechers":0,"uploader":"CDRiPD","files":2,"time":1465017127,"description":"Iraivi 2016 TAMiL DVDSCR TC Rip 1CD MP4 - Team TMR\r\n\r\n\r\nFormat                                   : MPEG-4\r\nFormat profile                           : Base Media\r\nCodec ID                                 : isom\r\nFile size                                : 701 MiB\r\nDuration                                 : 2h 37mn\r\nOverall bit rate                         : 622 Kbps\r\n\r\nVideo\r\nFormat                                   : AVC\r\nFormat/Info                              : Advanced Video Codec\r\nFormat profile                           :   \r\nFormat settings, CABAC                   : Yes\r\nFormat settings, ReFrames                : 3 frames\r\nCodec ID                                 : avc1\r\nCodec ID/Info                            : Advanced Video Coding\r\nDuration                                 : 2h 37mn\r\nBit rate                                 : 507 Kbps\r\nMaximum bit rate                         : 2 144 Kbps\r\nWidth                                    : 688 pixels\r\nHeight                                   : 286 pixels\r\nDisplay aspect ratio                     : 2.40:1\r\nFrame rate mode                          : Constant\r\nFrame rate                               : 25.000 fps\r\nColor space                              : YUV\r\nChroma subsampling                       : 4:2:0\r\nBit depth                                : 8 bits\r\nScan type                                : Progressive\r\nBits/(Pixel*Frame)                       : 0.103\r\nStream size                              : 571 MiB (81%)\r\nWriting library                          : x264 core 148 r2638 7599210\r\n\r\nAudio\r\nFormat                                   : MPEG Audio\r\nFormat version                           : Version 2\r\nFormat profile                           : Layer 3\r\nMode                                     : Joint stereo\r\nMode extension                           : MS Stereo\r\nCodec ID                                 : .mp3\r\nDuration                                 : 2h 37mn\r\nBit rate mode                            : Constant\r\nBit rate                                 : 112 Kbps\r\nMaximum bit rate                         : 117 Kbps\r\nChannel(s)                               : 2 channels\r\nSampling rate                            : 22.05 KHz\r\nCompression mode                         : Lossy\r\nStream size                              : 126 MiB (18%)\r\nLanguage                                 : Tamil  \r\n\r\n\r\nScreen Shots:\r\n \nhttps://ititli.com/XuR \nhttps://ititli.com/Xuy \nhttps://ititli.com/Xu3 \nhttps://ititli.com/XuE \nhttps://ititli.com/XuQ \nhttps://ititli.com/XuS \nhttps://ititli.com/XuZ \nhttps://ititli.com/Xuc \nhttps://ititli.com/Xui \nhttps://ititli.com/Xup \nhttps://ititli.com/XuD \nhttps://ititli.com/Xua","torrent":{"xt":"urn:btih:ab0c17dbdf73ea1a321ac9c327df396fe975c92b","amp;dn":"Iraivi+2016+TAMiL+DVDSCR+TC+Rip+1CD+MP4+-+Team+TMR","amp;tr":["udp%3A%2F%2Ftracker.leechers-paradise.org%3A6969","udp%3A%2F%2Fzer0day.ch%3A1337","udp%3A%2F%2Fopen.demonii.com%3A1337","udp%3A%2F%2Ftracker.coppersurfer.tk%3A6969","udp%3A%2F%2Fexodus.desync.com%3A6969"],"infoHash":"ab0c17dbdf73ea1a321ac9c327df396fe975c92b","infoHashBuffer":{"type":"Buffer","data":[171,12,23,219,223,115,234,26,50,26,201,195,39,223,57,111,233,117,201,43]},"announce":[],"urlList":[]}}